<svg width="49" height="37" viewBox="0 0 49 37" fill="none" xmlns="http://www.w3.org/2000/svg">
<g id="company-logo">
<path d="M8.05753 5.7793C7.98295 5.52007 7.8782 5.29102 7.74325 5.09216C7.60831 4.88974 7.44318 4.71929 7.24787 4.58079C7.05611 4.43875 6.83594 4.33044 6.58736 4.25587C6.34233 4.18129 6.07067 4.144 5.77237 4.144C5.21484 4.144 4.72479 4.2825 4.3022 4.55949C3.88317 4.83648 3.55646 5.23953 3.32209 5.76865C3.08771 6.29422 2.97053 6.93697 2.97053 7.69692C2.97053 8.45686 3.08594 9.10317 3.31676 9.63584C3.54759 10.1685 3.87429 10.5751 4.29688 10.8557C4.71946 11.1326 5.21839 11.2711 5.79368 11.2711C6.3157 11.2711 6.76136 11.1788 7.13068 10.9941C7.50355 10.8059 7.78764 10.5414 7.98295 10.2005C8.18182 9.85956 8.28125 9.4565 8.28125 8.99131L8.75 9.06055H5.9375V7.32405H10.5025V8.69834C10.5025 9.65714 10.3001 10.481 9.89524 11.1699C9.49041 11.8553 8.93288 12.3844 8.22266 12.7573C7.51243 13.1266 6.69922 13.3113 5.78303 13.3113C4.7603 13.3113 3.86186 13.0858 3.08771 12.6348C2.31357 12.1802 1.70987 11.5357 1.27663 10.7012C0.846946 9.86311 0.632102 8.86879 0.632102 7.71822C0.632102 6.83399 0.759943 6.04564 1.01562 5.35317C1.27486 4.65714 1.63707 4.06766 2.10227 3.5847C2.56747 3.10175 3.10902 2.7342 3.72692 2.48207C4.34482 2.22994 5.0142 2.10388 5.73509 2.10388C6.35298 2.10388 6.92827 2.19443 7.46094 2.37554C7.99361 2.5531 8.46591 2.80523 8.87784 3.13193C9.29332 3.45863 9.63246 3.84748 9.89524 4.29848C10.158 4.74592 10.3267 5.23953 10.4013 5.7793H8.05753Z" fill="#D0444B"/>
<path d="M14.5415 2.25302V13.1621H12.235V2.25302H14.5415Z" fill="#D0444B"/>
<path d="M18.6017 2.25302L20.8017 5.97106H20.8869L23.0975 2.25302H25.7022L22.373 7.70757L25.7768 13.1621H23.1241L20.8869 9.43875H20.8017L18.5645 13.1621H15.9224L19.3368 7.70757L15.9863 2.25302H18.6017Z" fill="#D0444B"/>
<path d="M34.1238 14.7814C32.9909 14.7814 31.9824 14.627 31.0982 14.318C30.214 14.0126 29.4664 13.5652 28.8556 12.9757C28.2449 12.3826 27.7797 11.66 27.4601 10.8077C27.1404 9.95544 26.9806 8.98598 26.9806 7.89933C26.9806 6.82689 27.1404 5.85388 27.4601 4.9803C27.7832 4.10672 28.2537 3.35743 28.8716 2.73243C29.4895 2.10388 30.2441 1.62092 31.1355 1.28356C32.0304 0.946206 33.0495 0.777527 34.193 0.777527C35.2512 0.777527 36.1958 0.932002 37.0268 1.24095C37.8613 1.5499 38.568 1.99024 39.1468 2.56197C39.7292 3.13015 40.1713 3.80665 40.4732 4.59145C40.7786 5.3727 40.9295 6.2374 40.926 7.18555C40.9295 7.83896 40.8727 8.4391 40.7555 8.98598C40.6383 9.53285 40.4537 10.0105 40.2015 10.4189C39.9529 10.8237 39.6262 11.1451 39.2214 11.383C38.8166 11.6174 38.3265 11.7505 37.7512 11.7825C37.3393 11.8145 37.0055 11.7843 36.7498 11.6919C36.4941 11.5996 36.2988 11.4629 36.1639 11.2818C36.0325 11.0971 35.9473 10.8823 35.9082 10.6373H35.8443C35.7591 10.8503 35.5922 11.0439 35.3436 11.2179C35.095 11.3883 34.7914 11.5215 34.4327 11.6174C34.0776 11.7097 33.6994 11.7434 33.2981 11.7186C32.8791 11.6937 32.4814 11.5961 32.1049 11.4256C31.7321 11.2552 31.4 11.0084 31.1088 10.6852C30.8212 10.362 30.5939 9.96254 30.427 9.48669C30.2637 9.01084 30.1802 8.46041 30.1767 7.83541C30.1802 7.21751 30.2672 6.67952 30.4377 6.22142C30.6117 5.76332 30.8407 5.37802 31.1248 5.06552C31.4125 4.75302 31.7321 4.508 32.0836 4.33044C32.4352 4.15288 32.7885 4.03925 33.1436 3.98953C33.5449 3.92916 33.9249 3.92916 34.2836 3.98953C34.6422 4.0499 34.9441 4.14756 35.1891 4.2825C35.4377 4.41744 35.5922 4.56304 35.6525 4.71929H35.7271V4.1227H37.3944V9.32156C37.3979 9.56659 37.4529 9.75658 37.5595 9.89152C37.666 10.0265 37.8098 10.0939 37.9909 10.0939C38.236 10.0939 38.4402 9.98562 38.6035 9.769C38.7704 9.55239 38.8947 9.22035 38.9764 8.77291C39.0616 8.32547 39.1042 7.75551 39.1042 7.06304C39.1042 6.39543 39.0154 5.80949 38.8379 5.30523C38.6639 4.79741 38.4189 4.36595 38.1028 4.01084C37.7903 3.65217 37.4263 3.36098 37.0108 3.13726C36.5953 2.91354 36.1444 2.75018 35.6578 2.6472C35.1749 2.54422 34.6777 2.49273 34.1664 2.49273C33.2821 2.49273 32.5098 2.62767 31.8493 2.89756C31.1887 3.16389 30.6383 3.53854 30.198 4.02149C29.7576 4.50444 29.4274 5.07085 29.2072 5.72071C28.9906 6.36702 28.8805 7.07192 28.877 7.83541C28.8805 8.67703 28.9977 9.42277 29.2285 10.0726C29.4629 10.7189 29.8074 11.2623 30.2619 11.7026C30.7164 12.1429 31.2775 12.4767 31.9451 12.704C32.6127 12.9313 33.3798 13.0449 34.2463 13.0449C34.6547 13.0449 35.0542 13.0165 35.4448 12.9597C35.8354 12.8993 36.1887 12.8283 36.5048 12.7466C36.8208 12.6614 37.0748 12.5797 37.2665 12.5016L37.7939 14.0463C37.5701 14.1742 37.2665 14.2932 36.883 14.4032C36.503 14.5169 36.0733 14.6074 35.5939 14.6749C35.1181 14.7459 34.628 14.7814 34.1238 14.7814ZM33.8787 9.96609C34.312 9.96609 34.6564 9.88264 34.9121 9.71574C35.1713 9.54883 35.356 9.30203 35.4661 8.97533C35.5797 8.64507 35.633 8.23846 35.6259 7.75551C35.6223 7.32937 35.5673 6.96893 35.4608 6.67419C35.3578 6.37589 35.1784 6.1504 34.9228 5.9977C34.6706 5.84145 34.3191 5.76332 33.8681 5.76332C33.4739 5.76332 33.1383 5.84677 32.8613 6.01368C32.5879 6.18058 32.3784 6.41496 32.2328 6.7168C32.0907 7.0151 32.0179 7.36666 32.0144 7.77149C32.0179 8.14791 32.0783 8.5048 32.1955 8.84216C32.3127 9.17596 32.5062 9.44763 32.7761 9.65714C33.046 9.86311 33.4135 9.96609 33.8787 9.96609Z" fill="#D0444B"/>
<path d="M2.73615 19.6745C2.70182 19.5668 2.65566 19.4704 2.59766 19.3851C2.54084 19.2987 2.47277 19.2253 2.39347 19.165C2.31416 19.1034 2.2236 19.0566 2.1218 19.0247C2.02119 18.9927 1.91051 18.9767 1.78977 18.9767C1.58499 18.9767 1.40033 19.0294 1.2358 19.1348C1.07126 19.2401 0.941051 19.3946 0.84517 19.5982C0.750473 19.8006 0.703125 20.0486 0.703125 20.3422C0.703125 20.6369 0.751065 20.8861 0.846946 21.0897C0.942827 21.2933 1.07422 21.4477 1.24112 21.5531C1.40803 21.6584 1.59801 21.7111 1.81108 21.7111C2.00876 21.7111 2.18099 21.6709 2.32777 21.5904C2.47573 21.5099 2.58996 21.3963 2.67045 21.2495C2.75213 21.1015 2.79297 20.9275 2.79297 20.7275L2.93501 20.7541H1.89453V20.3013H3.32386V20.715C3.32386 21.0204 3.25876 21.2856 3.12855 21.5105C2.99953 21.7342 2.82079 21.907 2.59233 22.0289C2.36506 22.1509 2.10464 22.2118 1.81108 22.2118C1.48201 22.2118 1.19318 22.1361 0.944602 21.9846C0.697206 21.833 0.504261 21.6182 0.365767 21.34C0.227273 21.0607 0.158026 20.7292 0.158026 20.3457C0.158026 20.0557 0.198272 19.7953 0.278764 19.5645C0.359257 19.3336 0.472301 19.1377 0.617898 18.9767C0.764678 18.8146 0.936908 18.6909 1.13459 18.6057C1.33345 18.5192 1.55066 18.476 1.78622 18.476C1.98272 18.476 2.1656 18.505 2.33487 18.563C2.50533 18.621 2.65684 18.7033 2.78942 18.8098C2.92318 18.9164 3.03385 19.043 3.12145 19.1898C3.20904 19.3354 3.26823 19.497 3.29901 19.6745H2.73615Z" fill="white"/>
<path d="M4.02033 22.1621V18.5258H4.56898V20.106H6.38184V18.5258H6.93226V22.1621H6.38184V20.5765H4.56898V22.1621H4.02033Z" fill="white"/>
<path d="M8.03844 22.1621H7.45605L8.76465 18.5258H9.39853L10.7071 22.1621H10.1247L9.09668 19.1863H9.06827L8.03844 22.1621ZM8.1361 20.7381H10.0253V21.1998H8.1361V20.7381Z" fill="white"/>
<path d="M14.1673 18.5258V22.1621H13.663L11.8146 19.4952H11.7809V22.1621H11.2322V18.5258H11.7401L13.5902 21.1962H13.6239V18.5258H14.1673Z" fill="white"/>
<path d="M15.2748 22.1621H14.6924L16.001 18.5258H16.6349L17.9434 22.1621H17.3611L16.333 19.1863H16.3046L15.2748 22.1621ZM15.3724 20.7381H17.2616V21.1998H15.3724V20.7381Z" fill="white"/>
<path d="M20.3405 18.5258V22.1621H19.7918V18.5258H20.3405Z" fill="white"/>
<path d="M24.0745 18.5258V22.1621H23.5702L21.7219 19.4952H21.6881V22.1621H21.1395V18.5258H21.6473L23.4974 21.1962H23.5312V18.5258H24.0745Z" fill="white"/>
<path d="M24.6955 18.9981V18.5258H27.5098V18.9981H26.3752V22.1621H25.8283V18.9981H24.6955Z" fill="white"/>
<path d="M28.1317 22.1621V18.5258H30.4115V18.9981H28.6803V20.106H30.2925V20.5765H28.6803V21.6898H30.4328V22.1621H28.1317Z" fill="white"/>
<path d="M31.1444 22.1621V18.5258H32.4405C32.7222 18.5258 32.956 18.5743 33.1419 18.6713C33.3289 18.7684 33.4686 18.9028 33.5609 19.0744C33.6532 19.2449 33.6994 19.4419 33.6994 19.6657C33.6994 19.8882 33.6526 20.0841 33.5591 20.2534C33.4668 20.4215 33.3271 20.5523 33.1401 20.6458C32.9542 20.7393 32.7205 20.7861 32.4387 20.7861H31.4569V20.3137H32.389C32.5666 20.3137 32.711 20.2883 32.8223 20.2374C32.9347 20.1865 33.017 20.1125 33.0691 20.0155C33.1212 19.9184 33.1472 19.8018 33.1472 19.6657C33.1472 19.5284 33.1206 19.4094 33.0673 19.3088C33.0152 19.2082 32.9329 19.1312 32.8205 19.078C32.7092 19.0235 32.563 18.9963 32.3819 18.9963H31.693V22.1621H31.1444ZM32.9395 20.5215L33.8379 22.1621H33.2129L32.3322 20.5215H32.9395Z" fill="white"/>
<path d="M37.302 18.5258V22.1621H36.7978L34.9494 19.4952H34.9157V22.1621H34.367V18.5258H34.8748L36.725 21.1962H36.7587V18.5258H37.302Z" fill="white"/>
<path d="M38.1024 22.1621V18.5258H40.3822V18.9981H38.651V20.106H40.2632V20.5765H38.651V21.6898H40.4035V22.1621H38.1024Z" fill="white"/>
<path d="M40.9357 18.9981V18.5258H43.75V18.9981H42.6154V22.1621H42.0685V18.9981H40.9357Z" fill="white"/>
<path d="M0.275213 29.1621V25.5258H2.55504V25.9981H0.823864V27.106H2.43608V27.5765H0.823864V28.6898H2.57635V29.1621H0.275213Z" fill="white"/>
<path d="M3.66966 25.5258L4.53968 26.948H4.56809L5.43812 25.5258H6.07377L4.94096 27.3439L6.08088 29.1621H5.44167L4.56809 27.7594H4.53968L3.6661 29.1621H3.0269L4.18635 27.3439L3.034 25.5258H3.66966Z" fill="white"/>
<path d="M9.54057 26.7083H8.98659C8.96529 26.5899 8.92563 26.4857 8.86763 26.3958C8.80963 26.3058 8.73861 26.2295 8.65456 26.1667C8.57052 26.104 8.47641 26.0566 8.37225 26.0247C8.26926 25.9927 8.15977 25.9767 8.04377 25.9767C7.83425 25.9767 7.64663 26.0294 7.48091 26.1348C7.31638 26.2401 7.18617 26.3946 7.09029 26.5982C6.99559 26.8018 6.94824 27.0504 6.94824 27.3439C6.94824 27.6399 6.99559 27.8896 7.09029 28.0932C7.18617 28.2968 7.31697 28.4507 7.48269 28.5549C7.64841 28.659 7.83484 28.7111 8.04199 28.7111C8.15681 28.7111 8.26571 28.6957 8.3687 28.665C8.47286 28.633 8.56697 28.5862 8.65101 28.5247C8.73506 28.4631 8.80608 28.388 8.86408 28.2992C8.92327 28.2092 8.9641 28.1062 8.98659 27.9902L9.54057 27.992C9.51098 28.1708 9.45357 28.3353 9.36834 28.4856C9.2843 28.6348 9.17599 28.7638 9.04341 28.8727C8.91202 28.9804 8.76169 29.0639 8.59242 29.1231C8.42315 29.1822 8.23849 29.2118 8.03844 29.2118C7.72357 29.2118 7.44303 29.1373 7.19682 28.9881C6.95061 28.8378 6.75648 28.6229 6.61444 28.3436C6.47357 28.0642 6.40314 27.731 6.40314 27.3439C6.40314 26.9557 6.47417 26.6225 6.61621 26.3443C6.75826 26.0649 6.95239 25.8507 7.1986 25.7015C7.44481 25.5512 7.72476 25.476 8.03844 25.476C8.23139 25.476 8.41131 25.5039 8.57821 25.5595C8.7463 25.6139 8.89722 25.6944 9.03098 25.801C9.16474 25.9063 9.27542 26.0353 9.36302 26.188C9.45061 26.3396 9.5098 26.513 9.54057 26.7083Z" fill="white"/>
<path d="M10.1971 29.1621V25.5258H10.7457V27.106H12.5586V25.5258H13.109V29.1621H12.5586V27.5765H10.7457V29.1621H10.1971Z" fill="white"/>
<path d="M14.2152 29.1621H13.6328L14.9414 25.5258H15.5753L16.8839 29.1621H16.3015L15.2734 26.1863H15.245L14.2152 29.1621ZM14.3129 27.7381H16.2021V28.1998H14.3129V27.7381Z" fill="white"/>
<path d="M20.344 25.5258V29.1621H19.8398L17.9914 26.4952H17.9577V29.1621H17.409V25.5258H17.9168L19.767 28.1962H19.8007V25.5258H20.344Z" fill="white"/>
<path d="M23.6053 26.6745C23.571 26.5668 23.5248 26.4704 23.4668 26.3851C23.41 26.2987 23.3419 26.2253 23.2626 26.165C23.1833 26.1034 23.0927 26.0566 22.9909 26.0247C22.8903 25.9927 22.7797 25.9767 22.6589 25.9767C22.4541 25.9767 22.2695 26.0294 22.1049 26.1348C21.9404 26.2401 21.8102 26.3946 21.7143 26.5982C21.6196 26.8006 21.5723 27.0486 21.5723 27.3422C21.5723 27.6369 21.6202 27.8861 21.7161 28.0897C21.812 28.2933 21.9434 28.4477 22.1103 28.5531C22.2772 28.6584 22.4672 28.7111 22.6802 28.7111C22.8779 28.7111 23.0501 28.6709 23.1969 28.5904C23.3449 28.5099 23.4591 28.3963 23.5396 28.2495C23.6213 28.1015 23.6621 27.9275 23.6621 27.7275L23.8042 27.7541H22.7637V27.3013H24.193V27.715C24.193 28.0204 24.1279 28.2856 23.9977 28.5105C23.8687 28.7342 23.6899 28.907 23.4615 29.0289C23.2342 29.1509 22.9738 29.2118 22.6802 29.2118C22.3511 29.2118 22.0623 29.1361 21.8137 28.9846C21.5663 28.833 21.3734 28.6182 21.2349 28.34C21.0964 28.0607 21.0272 27.7292 21.0272 27.3457C21.0272 27.0557 21.0674 26.7953 21.1479 26.5645C21.2284 26.3336 21.3414 26.1377 21.487 25.9767C21.6338 25.8146 21.806 25.6909 22.0037 25.6057C22.2026 25.5192 22.4198 25.476 22.6554 25.476C22.8519 25.476 23.0347 25.505 23.204 25.563C23.3745 25.621 23.526 25.7033 23.6586 25.8098C23.7923 25.9164 23.903 26.043 23.9906 26.1898C24.0782 26.3354 24.1374 26.497 24.1681 26.6745H23.6053Z" fill="white"/>
<path d="M24.8895 29.1621V25.5258H27.1693V25.9981H25.4381V27.106H27.0503V27.5765H25.4381V28.6898H27.1906V29.1621H24.8895Z" fill="white"/>
<path d="M0.582386 36.1621H0L1.30859 32.5258H1.94247L3.25107 36.1621H2.66868L1.64063 33.1863H1.61222L0.582386 36.1621ZM0.680043 34.7381H2.56925V35.1998H0.680043V34.7381Z" fill="white"/>
<path d="M5.7302 33.481C5.71126 33.3129 5.63314 33.1827 5.49583 33.0904C5.35852 32.9969 5.1857 32.9501 4.97736 32.9501C4.82821 32.9501 4.69919 32.9738 4.59029 33.0211C4.48139 33.0673 4.39675 33.1312 4.33638 33.2129C4.2772 33.2934 4.2476 33.3851 4.2476 33.4881C4.2476 33.5745 4.26773 33.6491 4.30797 33.7118C4.3494 33.7746 4.40326 33.8272 4.46955 33.8699C4.53702 33.9113 4.60923 33.9462 4.68617 33.9746C4.76311 34.0018 4.83709 34.0243 4.90811 34.0421L5.26323 34.1344C5.37923 34.1628 5.49819 34.2013 5.62012 34.2498C5.74204 34.2984 5.85508 34.3623 5.95925 34.4416C6.06342 34.5209 6.14746 34.6191 6.21138 34.7363C6.27649 34.8535 6.30904 34.9938 6.30904 35.1571C6.30904 35.3631 6.25577 35.546 6.14924 35.7058C6.04389 35.8656 5.8906 35.9917 5.68936 36.084C5.48932 36.1763 5.24725 36.2225 4.96316 36.2225C4.6909 36.2225 4.45534 36.1793 4.25648 36.0929C4.05762 36.0065 3.90196 35.8839 3.78951 35.7253C3.67705 35.5655 3.61491 35.3761 3.60307 35.1571H4.1535C4.16415 35.2885 4.20676 35.398 4.28134 35.4856C4.3571 35.572 4.45357 35.6365 4.57076 35.6792C4.68913 35.7206 4.81874 35.7413 4.95961 35.7413C5.11467 35.7413 5.25257 35.717 5.37331 35.6685C5.49524 35.6188 5.59112 35.5501 5.66096 35.4625C5.73079 35.3738 5.76571 35.2702 5.76571 35.1518C5.76571 35.0441 5.73494 34.9559 5.67338 34.8873C5.61301 34.8186 5.53075 34.7618 5.42658 34.7168C5.3236 34.6718 5.207 34.6322 5.07679 34.5978L4.64711 34.4807C4.35591 34.4013 4.12509 34.2847 3.95463 34.1309C3.78536 33.977 3.70073 33.7734 3.70073 33.5201C3.70073 33.3106 3.75755 33.1277 3.87118 32.9714C3.98482 32.8152 4.1387 32.6938 4.33283 32.6074C4.52696 32.5198 4.74595 32.476 4.98979 32.476C5.236 32.476 5.45321 32.5192 5.64142 32.6057C5.83082 32.6921 5.97997 32.811 6.08887 32.9625C6.19777 33.1129 6.25459 33.2857 6.25932 33.481H5.7302Z" fill="white"/>
<path d="M8.94798 33.481C8.92904 33.3129 8.85091 33.1827 8.7136 33.0904C8.57629 32.9969 8.40347 32.9501 8.19514 32.9501C8.04599 32.9501 7.91696 32.9738 7.80806 33.0211C7.69916 33.0673 7.61452 33.1312 7.55415 33.2129C7.49497 33.2934 7.46538 33.3851 7.46538 33.4881C7.46538 33.5745 7.4855 33.6491 7.52575 33.7118C7.56718 33.7746 7.62103 33.8272 7.68732 33.8699C7.75479 33.9113 7.827 33.9462 7.90394 33.9746C7.98088 34.0018 8.05487 34.0243 8.12589 34.0421L8.481 34.1344C8.59701 34.1628 8.71597 34.2013 8.83789 34.2498C8.95981 34.2984 9.07286 34.3623 9.17702 34.4416C9.28119 34.5209 9.36523 34.6191 9.42916 34.7363C9.49426 34.8535 9.52681 34.9938 9.52681 35.1571C9.52681 35.3631 9.47354 35.546 9.36701 35.7058C9.26166 35.8656 9.10837 35.9917 8.90714 36.084C8.70709 36.1763 8.46502 36.2225 8.18093 36.2225C7.90868 36.2225 7.67312 36.1793 7.47425 36.0929C7.27539 36.0065 7.11973 35.8839 7.00728 35.7253C6.89483 35.5655 6.83268 35.3761 6.82085 35.1571H7.37127C7.38192 35.2885 7.42454 35.398 7.49911 35.4856C7.57487 35.572 7.67134 35.6365 7.78853 35.6792C7.9069 35.7206 8.03652 35.7413 8.17738 35.7413C8.33245 35.7413 8.47035 35.717 8.59109 35.6685C8.71301 35.6188 8.80889 35.5501 8.87873 35.4625C8.94857 35.3738 8.98349 35.2702 8.98349 35.1518C8.98349 35.0441 8.95271 34.9559 8.89116 34.8873C8.83079 34.8186 8.74852 34.7618 8.64435 34.7168C8.54137 34.6718 8.42478 34.6322 8.29457 34.5978L7.86488 34.4807C7.57369 34.4013 7.34286 34.2847 7.17241 34.1309C7.00314 33.977 6.9185 33.7734 6.9185 33.5201C6.9185 33.3106 6.97532 33.1277 7.08896 32.9714C7.20259 32.8152 7.35648 32.6938 7.5506 32.6074C7.74473 32.5198 7.96372 32.476 8.20756 32.476C8.45378 32.476 8.67099 32.5192 8.8592 32.6057C9.04859 32.6921 9.19774 32.811 9.30664 32.9625C9.41554 33.1129 9.47236 33.2857 9.4771 33.481H8.94798Z" fill="white"/>
<path d="M13.3412 34.3439C13.3412 34.7322 13.2702 35.066 13.1281 35.3454C12.9861 35.6235 12.7913 35.8378 12.5439 35.9881C12.2977 36.1373 12.0178 36.2118 11.7041 36.2118C11.3892 36.2118 11.1081 36.1373 10.8607 35.9881C10.6145 35.8378 10.4204 35.6229 10.2783 35.3436C10.1363 35.0642 10.0653 34.731 10.0653 34.3439C10.0653 33.9557 10.1363 33.6225 10.2783 33.3443C10.4204 33.0649 10.6145 32.8507 10.8607 32.7015C11.1081 32.5512 11.3892 32.476 11.7041 32.476C12.0178 32.476 12.2977 32.5512 12.5439 32.7015C12.7913 32.8507 12.9861 33.0649 13.1281 33.3443C13.2702 33.6225 13.3412 33.9557 13.3412 34.3439ZM12.7979 34.3439C12.7979 34.048 12.7499 33.7988 12.654 33.5964C12.5593 33.3928 12.4291 33.2389 12.2634 33.1348C12.0989 33.0294 11.9124 32.9767 11.7041 32.9767C11.4946 32.9767 11.3076 33.0294 11.143 33.1348C10.9785 33.2389 10.8483 33.3928 10.7524 33.5964C10.6577 33.7988 10.6104 34.048 10.6104 34.3439C10.6104 34.6399 10.6577 34.8896 10.7524 35.0932C10.8483 35.2956 10.9785 35.4495 11.143 35.5549C11.3076 35.659 11.4946 35.7111 11.7041 35.7111C11.9124 35.7111 12.0989 35.659 12.2634 35.5549C12.4291 35.4495 12.5593 35.2956 12.654 35.0932C12.7499 34.8896 12.7979 34.6399 12.7979 34.3439Z" fill="white"/>
<path d="M14.5739 32.5258V36.1621H14.0252V32.5258H14.5739Z" fill="white"/>
<path d="M15.68 36.1621H15.0977L16.4062 32.5258H17.0401L18.3487 36.1621H17.7663L16.7383 33.1863H16.7099L15.68 36.1621ZM15.7777 34.7381H17.6669V35.1998H15.7777V34.7381Z" fill="white"/>
<path d="M20.8279 33.481C20.8089 33.3129 20.7308 33.1827 20.5935 33.0904C20.4562 32.9969 20.2834 32.9501 20.075 32.9501C19.9259 32.9501 19.7968 32.9738 19.6879 33.0211C19.579 33.0673 19.4944 33.1312 19.434 33.2129C19.3749 33.2934 19.3453 33.3851 19.3453 33.4881C19.3453 33.5745 19.3654 33.6491 19.4056 33.7118C19.4471 33.7746 19.5009 33.8272 19.5672 33.8699C19.6347 33.9113 19.7069 33.9462 19.7838 33.9746C19.8608 34.0018 19.9347 34.0243 20.0058 34.0421L20.3609 34.1344C20.4769 34.1628 20.5959 34.2013 20.7178 34.2498C20.8397 34.2984 20.9527 34.3623 21.0569 34.4416C21.1611 34.5209 21.2451 34.6191 21.309 34.7363C21.3741 34.8535 21.4067 34.9938 21.4067 35.1571C21.4067 35.3631 21.3534 35.546 21.2469 35.7058C21.1415 35.8656 20.9883 35.9917 20.787 36.084C20.587 36.1763 20.3449 36.2225 20.0608 36.2225C19.7886 36.2225 19.553 36.1793 19.3541 36.0929C19.1553 36.0065 18.9996 35.8839 18.8872 35.7253C18.7747 35.5655 18.7126 35.3761 18.7007 35.1571H19.2512C19.2618 35.2885 19.3044 35.398 19.379 35.4856C19.4548 35.572 19.5512 35.6365 19.6684 35.6792C19.7868 35.7206 19.9164 35.7413 20.0573 35.7413C20.2123 35.7413 20.3502 35.717 20.471 35.6685C20.5929 35.6188 20.6888 35.5501 20.7586 35.4625C20.8285 35.3738 20.8634 35.2702 20.8634 35.1518C20.8634 35.0441 20.8326 34.9559 20.771 34.8873C20.7107 34.8186 20.6284 34.7618 20.5242 34.7168C20.4213 34.6718 20.3047 34.6322 20.1744 34.5978L19.7448 34.4807C19.4536 34.4013 19.2227 34.2847 19.0523 34.1309C18.883 33.977 18.7984 33.7734 18.7984 33.5201C18.7984 33.3106 18.8552 33.1277 18.9688 32.9714C19.0825 32.8152 19.2364 32.6938 19.4305 32.6074C19.6246 32.5198 19.8436 32.476 20.0874 32.476C20.3337 32.476 20.5509 32.5192 20.7391 32.6057C20.9285 32.6921 21.0776 32.811 21.1865 32.9625C21.2954 33.1129 21.3522 33.2857 21.357 33.481H20.8279Z" fill="white"/>
<path d="M24.0456 33.481C24.0267 33.3129 23.9486 33.1827 23.8113 33.0904C23.6739 32.9969 23.5011 32.9501 23.2928 32.9501C23.1436 32.9501 23.0146 32.9738 22.9057 33.0211C22.7968 33.0673 22.7122 33.1312 22.6518 33.2129C22.5926 33.2934 22.563 33.3851 22.563 33.4881C22.563 33.5745 22.5832 33.6491 22.6234 33.7118C22.6648 33.7746 22.7187 33.8272 22.785 33.8699C22.8525 33.9113 22.9247 33.9462 23.0016 33.9746C23.0785 34.0018 23.1525 34.0243 23.2235 34.0421L23.5787 34.1344C23.6947 34.1628 23.8136 34.2013 23.9355 34.2498C24.0575 34.2984 24.1705 34.3623 24.2747 34.4416C24.3788 34.5209 24.4629 34.6191 24.5268 34.7363C24.5919 34.8535 24.6245 34.9938 24.6245 35.1571C24.6245 35.3631 24.5712 35.546 24.4647 35.7058C24.3593 35.8656 24.206 35.9917 24.0048 36.084C23.8047 36.1763 23.5627 36.2225 23.2786 36.2225C23.0063 36.2225 22.7708 36.1793 22.5719 36.0929C22.373 36.0065 22.2174 35.8839 22.1049 35.7253C21.9925 35.5655 21.9303 35.3761 21.9185 35.1571H22.4689C22.4796 35.2885 22.5222 35.398 22.5968 35.4856C22.6725 35.572 22.769 35.6365 22.8862 35.6792C23.0046 35.7206 23.1342 35.7413 23.275 35.7413C23.4301 35.7413 23.568 35.717 23.6887 35.6685C23.8107 35.6188 23.9065 35.5501 23.9764 35.4625C24.0462 35.3738 24.0811 35.2702 24.0811 35.1518C24.0811 35.0441 24.0504 34.9559 23.9888 34.8873C23.9284 34.8186 23.8462 34.7618 23.742 34.7168C23.639 34.6718 23.5224 34.6322 23.3922 34.5978L22.9625 34.4807C22.6713 34.4013 22.4405 34.2847 22.2701 34.1309C22.1008 33.977 22.0162 33.7734 22.0162 33.5201C22.0162 33.3106 22.073 33.1277 22.1866 32.9714C22.3002 32.8152 22.4541 32.6938 22.6483 32.6074C22.8424 32.5198 23.0614 32.476 23.3052 32.476C23.5514 32.476 23.7686 32.5192 23.9569 32.6057C24.1462 32.6921 24.2954 32.811 24.4043 32.9625C24.5132 33.1129 24.57 33.2857 24.5748 33.481H24.0456Z" fill="white"/>
<path d="M28.4388 34.3439C28.4388 34.7322 28.3678 35.066 28.2258 35.3454C28.0837 35.6235 27.889 35.8378 27.6416 35.9881C27.3954 36.1373 27.1154 36.2118 26.8018 36.2118C26.4869 36.2118 26.2058 36.1373 25.9584 35.9881C25.7122 35.8378 25.518 35.6229 25.376 35.3436C25.2339 35.0642 25.1629 34.731 25.1629 34.3439C25.1629 33.9557 25.2339 33.6225 25.376 33.3443C25.518 33.0649 25.7122 32.8507 25.9584 32.7015C26.2058 32.5512 26.4869 32.476 26.8018 32.476C27.1154 32.476 27.3954 32.5512 27.6416 32.7015C27.889 32.8507 28.0837 33.0649 28.2258 33.3443C28.3678 33.6225 28.4388 33.9557 28.4388 34.3439ZM27.8955 34.3439C27.8955 34.048 27.8476 33.7988 27.7517 33.5964C27.657 33.3928 27.5268 33.2389 27.3611 33.1348C27.1965 33.0294 27.0101 32.9767 26.8018 32.9767C26.5922 32.9767 26.4052 33.0294 26.2407 33.1348C26.0761 33.2389 25.9459 33.3928 25.8501 33.5964C25.7554 33.7988 25.708 34.048 25.708 34.3439C25.708 34.6399 25.7554 34.8896 25.8501 35.0932C25.9459 35.2956 26.0761 35.4495 26.2407 35.5549C26.4052 35.659 26.5922 35.7111 26.8018 35.7111C27.0101 35.7111 27.1965 35.659 27.3611 35.5549C27.5268 35.4495 27.657 35.2956 27.7517 35.0932C27.8476 34.8896 27.8955 34.6399 27.8955 34.3439Z" fill="white"/>
<path d="M32.1431 33.7083H31.5891C31.5678 33.5899 31.5282 33.4857 31.4702 33.3958C31.4122 33.3058 31.3411 33.2295 31.2571 33.1667C31.1731 33.104 31.079 33.0566 30.9748 33.0247C30.8718 32.9927 30.7623 32.9767 30.6463 32.9767C30.4368 32.9767 30.2492 33.0294 30.0835 33.1348C29.9189 33.2401 29.7887 33.3946 29.6928 33.5982C29.5981 33.8018 29.5508 34.0504 29.5508 34.3439C29.5508 34.6399 29.5981 34.8896 29.6928 35.0932C29.7887 35.2968 29.9195 35.4507 30.0852 35.5549C30.2509 35.659 30.4374 35.7111 30.6445 35.7111C30.7594 35.7111 30.8683 35.6957 30.9712 35.665C31.0754 35.633 31.1695 35.5862 31.2536 35.5247C31.3376 35.4631 31.4086 35.388 31.4666 35.2992C31.5258 35.2092 31.5666 35.1062 31.5891 34.9902L32.1431 34.992C32.1135 35.1708 32.0561 35.3353 31.9709 35.4856C31.8868 35.6348 31.7785 35.7638 31.646 35.8727C31.5146 35.9804 31.3642 36.0639 31.195 36.1231C31.0257 36.1822 30.841 36.2118 30.641 36.2118C30.3261 36.2118 30.0456 36.1373 29.7994 35.9881C29.5531 35.8378 29.359 35.6229 29.217 35.3436C29.0761 35.0642 29.0057 34.731 29.0057 34.3439C29.0057 33.9557 29.0767 33.6225 29.2188 33.3443C29.3608 33.0649 29.5549 32.8507 29.8011 32.7015C30.0473 32.5512 30.3273 32.476 30.641 32.476C30.8339 32.476 31.0139 32.5039 31.1808 32.5595C31.3488 32.6139 31.4998 32.6944 31.6335 32.801C31.7673 32.9063 31.878 33.0353 31.9656 33.188C32.0531 33.3396 32.1123 33.513 32.1431 33.7083Z" fill="white"/>
<path d="M33.3483 32.5258V36.1621H32.7996V32.5258H33.3483Z" fill="white"/>
<path d="M34.4545 36.1621H33.8721L35.1807 32.5258H35.8145L37.1231 36.1621H36.5407L35.5127 33.1863H35.4843L34.4545 36.1621ZM34.5521 34.7381H36.4413V35.1998H34.5521V34.7381Z" fill="white"/>
<path d="M37.0392 32.9981V32.5258H39.8535V32.9981H38.7189V36.1621H38.1721V32.9981H37.0392Z" fill="white"/>
<path d="M41.0241 32.5258V36.1621H40.4754V32.5258H41.0241Z" fill="white"/>
<path d="M44.9818 34.3439C44.9818 34.7322 44.9108 35.066 44.7687 35.3454C44.6267 35.6235 44.432 35.8378 44.1846 35.9881C43.9384 36.1373 43.6584 36.2118 43.3447 36.2118C43.0299 36.2118 42.7487 36.1373 42.5013 35.9881C42.2551 35.8378 42.061 35.6229 41.9189 35.3436C41.7769 35.0642 41.7059 34.731 41.7059 34.3439C41.7059 33.9557 41.7769 33.6225 41.9189 33.3443C42.061 33.0649 42.2551 32.8507 42.5013 32.7015C42.7487 32.5512 43.0299 32.476 43.3447 32.476C43.6584 32.476 43.9384 32.5512 44.1846 32.7015C44.432 32.8507 44.6267 33.0649 44.7687 33.3443C44.9108 33.6225 44.9818 33.9557 44.9818 34.3439ZM44.4385 34.3439C44.4385 34.048 44.3905 33.7988 44.2947 33.5964C44.2 33.3928 44.0697 33.2389 43.904 33.1348C43.7395 33.0294 43.5531 32.9767 43.3447 32.9767C43.1352 32.9767 42.9482 33.0294 42.7836 33.1348C42.6191 33.2389 42.4889 33.3928 42.393 33.5964C42.2983 33.7988 42.251 34.048 42.251 34.3439C42.251 34.6399 42.2983 34.8896 42.393 35.0932C42.4889 35.2956 42.6191 35.4495 42.7836 35.5549C42.9482 35.659 43.1352 35.7111 43.3447 35.7111C43.5531 35.7111 43.7395 35.659 43.904 35.5549C44.0697 35.4495 44.2 35.2956 44.2947 35.0932C44.3905 34.8896 44.4385 34.6399 44.4385 34.3439Z" fill="white"/>
<path d="M48.6009 32.5258V36.1621H48.0966L46.2482 33.4952H46.2145V36.1621H45.6658V32.5258H46.1736L48.0238 35.1962H48.0575V32.5258H48.6009Z" fill="white"/>
</g>
</svg>
